<svg xmlns="http://www.w3.org/2000/svg" width="64.368" height="50.299" viewBox="0 0 64.368 50.299">
  <g id="microphone-2" transform="translate(2.25 48.049) rotate(-90)">
    <g id="Group_57212" data-name="Group 57212" transform="translate(0 0)">
      <path id="Path_201290" data-name="Path 201290" d="M11.974,0A11.97,11.97,0,0,1,23.947,11.974V28.437A11.974,11.974,0,0,1,0,28.437V11.974A11.97,11.97,0,0,1,11.974,0Z" transform="translate(10.926 19.457)" fill="none" stroke="#ff9a5f" stroke-linecap="round" stroke-linejoin="round" stroke-width="4.5"/>
      <path id="Path_201291" data-name="Path 201291" d="M9.882,22.9H0a22.9,22.9,0,0,1,45.8,0v5.089" transform="translate(0 8.98)" fill="none" stroke="#ff9a5f" stroke-linecap="round" stroke-linejoin="round" stroke-width="4.5"/>
      <path id="Path_201292" data-name="Path 201292" d="M0,0A12.054,12.054,0,0,0,8.322,0" transform="translate(18.739 46.607)" fill="none" stroke="#ff9a5f" stroke-linecap="round" stroke-linejoin="round" stroke-width="4.5"/>
      <path id="Path_201293" data-name="Path 201293" d="M0,0A9.394,9.394,0,0,0,4.819,0" transform="translate(20.505 40.261)" fill="none" stroke="#ff9a5f" stroke-linecap="round" stroke-linejoin="round" stroke-width="4.5"/>
      <path id="Path_201294" data-name="Path 201294" d="M0,8.98V0" transform="translate(22.899)" fill="none" stroke="#ff9a5f" stroke-linecap="round" stroke-linejoin="round" stroke-width="4.5"/>
    </g>
  </g>
</svg>
