<svg id="Group" xmlns="http://www.w3.org/2000/svg" width="451.028" height="451.22" viewBox="0 0 451.028 451.22">
  <circle id="Ellipse" cx="10.434" cy="10.434" r="10.434" transform="matrix(0.706, 0.708, -0.708, 0.706, 199.574, 0)" fill="rgba(252,155,17,0.04)"/>
  <circle id="Ellipse-2" data-name="Ellipse" cx="10.434" cy="10.434" r="10.434" transform="matrix(0.706, 0.708, -0.708, 0.706, 225.877, 26.399)" fill="rgba(252,155,17,0.04)"/>
  <circle id="Ellipse-3" data-name="Ellipse" cx="10.434" cy="10.434" r="10.434" transform="matrix(0.706, 0.708, -0.708, 0.706, 252.179, 52.797)" fill="rgba(252,155,17,0.04)"/>
  <circle id="Ellipse-4" data-name="Ellipse" cx="10.434" cy="10.434" r="10.434" transform="matrix(0.706, 0.708, -0.708, 0.706, 278.482, 79.196)" fill="rgba(252,155,17,0.04)"/>
  <circle id="Ellipse-5" data-name="Ellipse" cx="10.434" cy="10.434" r="10.434" transform="matrix(0.706, 0.708, -0.708, 0.706, 304.785, 105.595)" fill="rgba(252,155,17,0.04)"/>
  <circle id="Ellipse-6" data-name="Ellipse" cx="10.434" cy="10.434" r="10.434" transform="matrix(0.706, 0.708, -0.708, 0.706, 331.087, 131.993)" fill="rgba(252,155,17,0.04)"/>
  <circle id="Ellipse-7" data-name="Ellipse" cx="10.434" cy="10.434" r="10.434" transform="matrix(0.706, 0.708, -0.708, 0.706, 357.39, 158.392)" fill="rgba(252,155,17,0.04)"/>
  <circle id="Ellipse-8" data-name="Ellipse" cx="10.434" cy="10.434" r="10.434" transform="matrix(0.706, 0.708, -0.708, 0.706, 383.693, 184.791)" fill="rgba(252,155,17,0.04)"/>
  <circle id="Ellipse-9" data-name="Ellipse" cx="10.434" cy="10.434" r="10.434" transform="matrix(0.706, 0.708, -0.708, 0.706, 409.995, 211.19)" fill="rgba(252,155,17,0.04)"/>
  <circle id="Ellipse-10" data-name="Ellipse" cx="10.434" cy="10.434" r="10.434" transform="matrix(0.706, 0.708, -0.708, 0.706, 436.298, 237.588)" fill="rgba(252,155,17,0.04)"/>
  <circle id="Ellipse-11" data-name="Ellipse" cx="10.434" cy="10.434" r="10.434" transform="matrix(0.706, 0.708, -0.708, 0.706, 173.175, 26.303)" fill="rgba(252,155,17,0.04)"/>
  <circle id="Ellipse-12" data-name="Ellipse" cx="10.434" cy="10.434" r="10.434" transform="matrix(0.706, 0.708, -0.708, 0.706, 199.478, 52.701)" fill="rgba(252,155,17,0.04)"/>
  <circle id="Ellipse-13" data-name="Ellipse" cx="10.434" cy="10.434" r="10.434" transform="matrix(0.706, 0.708, -0.708, 0.706, 225.781, 79.1)" fill="rgba(252,155,17,0.04)"/>
  <circle id="Ellipse-14" data-name="Ellipse" cx="10.434" cy="10.434" r="10.434" transform="matrix(0.706, 0.708, -0.708, 0.706, 252.083, 105.499)" fill="rgba(252,155,17,0.04)"/>
  <circle id="Ellipse-15" data-name="Ellipse" cx="10.434" cy="10.434" r="10.434" transform="matrix(0.706, 0.708, -0.708, 0.706, 278.386, 131.897)" fill="rgba(252,155,17,0.04)"/>
  <circle id="Ellipse-16" data-name="Ellipse" cx="10.434" cy="10.434" r="10.434" transform="matrix(0.706, 0.708, -0.708, 0.706, 304.689, 158.296)" fill="rgba(252,155,17,0.04)"/>
  <circle id="Ellipse-17" data-name="Ellipse" cx="10.434" cy="10.434" r="10.434" transform="matrix(0.706, 0.708, -0.708, 0.706, 330.991, 184.695)" fill="rgba(252,155,17,0.04)"/>
  <circle id="Ellipse-18" data-name="Ellipse" cx="10.434" cy="10.434" r="10.434" transform="matrix(0.706, 0.708, -0.708, 0.706, 357.294, 211.094)" fill="rgba(252,155,17,0.04)"/>
  <circle id="Ellipse-19" data-name="Ellipse" cx="10.434" cy="10.434" r="10.434" transform="matrix(0.706, 0.708, -0.708, 0.706, 383.597, 237.492)" fill="rgba(252,155,17,0.04)"/>
  <circle id="Ellipse-20" data-name="Ellipse" cx="10.434" cy="10.434" r="10.434" transform="matrix(0.706, 0.708, -0.708, 0.706, 409.899, 263.891)" fill="rgba(252,155,17,0.04)"/>
  <circle id="Ellipse-21" data-name="Ellipse" cx="10.434" cy="10.434" r="10.434" transform="matrix(0.706, 0.708, -0.708, 0.706, 146.777, 52.605)" fill="rgba(252,155,17,0.04)"/>
  <circle id="Ellipse-22" data-name="Ellipse" cx="10.434" cy="10.434" r="10.434" transform="matrix(0.706, 0.708, -0.708, 0.706, 173.079, 79.004)" fill="rgba(252,155,17,0.04)"/>
  <circle id="Ellipse-23" data-name="Ellipse" cx="10.434" cy="10.434" r="10.434" transform="matrix(0.706, 0.708, -0.708, 0.706, 199.382, 105.403)" fill="rgba(252,155,17,0.04)"/>
  <circle id="Ellipse-24" data-name="Ellipse" cx="10.434" cy="10.434" r="10.434" transform="matrix(0.706, 0.708, -0.708, 0.706, 225.685, 131.801)" fill="rgba(252,155,17,0.04)"/>
  <circle id="Ellipse-25" data-name="Ellipse" cx="10.434" cy="10.434" r="10.434" transform="matrix(0.706, 0.708, -0.708, 0.706, 251.987, 158.2)" fill="rgba(252,155,17,0.04)"/>
  <circle id="Ellipse-26" data-name="Ellipse" cx="10.434" cy="10.434" r="10.434" transform="matrix(0.706, 0.708, -0.708, 0.706, 278.29, 184.599)" fill="rgba(252,155,17,0.04)"/>
  <circle id="Ellipse-27" data-name="Ellipse" cx="10.434" cy="10.434" r="10.434" transform="matrix(0.706, 0.708, -0.708, 0.706, 304.593, 210.998)" fill="rgba(252,155,17,0.04)"/>
  <circle id="Ellipse-28" data-name="Ellipse" cx="10.434" cy="10.434" r="10.434" transform="matrix(0.706, 0.708, -0.708, 0.706, 330.895, 237.396)" fill="rgba(252,155,17,0.04)"/>
  <circle id="Ellipse-29" data-name="Ellipse" cx="10.434" cy="10.434" r="10.434" transform="matrix(0.706, 0.708, -0.708, 0.706, 357.198, 263.795)" fill="rgba(252,155,17,0.04)"/>
  <circle id="Ellipse-30" data-name="Ellipse" cx="10.434" cy="10.434" r="10.434" transform="matrix(0.706, 0.708, -0.708, 0.706, 383.501, 290.194)" fill="rgba(252,155,17,0.04)"/>
  <circle id="Ellipse-31" data-name="Ellipse" cx="10.434" cy="10.434" r="10.434" transform="matrix(0.706, 0.708, -0.708, 0.706, 120.378, 78.908)" fill="rgba(252,155,17,0.04)"/>
  <circle id="Ellipse-32" data-name="Ellipse" cx="10.434" cy="10.434" r="10.434" transform="matrix(0.706, 0.708, -0.708, 0.706, 146.681, 105.307)" fill="rgba(252,155,17,0.04)"/>
  <circle id="Ellipse-33" data-name="Ellipse" cx="10.434" cy="10.434" r="10.434" transform="matrix(0.706, 0.708, -0.708, 0.706, 172.983, 131.705)" fill="rgba(252,155,17,0.04)"/>
  <circle id="Ellipse-34" data-name="Ellipse" cx="10.434" cy="10.434" r="10.434" transform="matrix(0.706, 0.708, -0.708, 0.706, 199.286, 158.104)" fill="rgba(252,155,17,0.04)"/>
  <circle id="Ellipse-35" data-name="Ellipse" cx="10.434" cy="10.434" r="10.434" transform="matrix(0.706, 0.708, -0.708, 0.706, 225.589, 184.503)" fill="rgba(252,155,17,0.04)"/>
  <circle id="Ellipse-36" data-name="Ellipse" cx="10.434" cy="10.434" r="10.434" transform="matrix(0.706, 0.708, -0.708, 0.706, 251.891, 210.901)" fill="rgba(252,155,17,0.04)"/>
  <circle id="Ellipse-37" data-name="Ellipse" cx="10.434" cy="10.434" r="10.434" transform="matrix(0.706, 0.708, -0.708, 0.706, 278.194, 237.3)" fill="rgba(252,155,17,0.04)"/>
  <circle id="Ellipse-38" data-name="Ellipse" cx="10.434" cy="10.434" r="10.434" transform="matrix(0.706, 0.708, -0.708, 0.706, 304.497, 263.699)" fill="rgba(252,155,17,0.04)"/>
  <circle id="Ellipse-39" data-name="Ellipse" cx="10.434" cy="10.434" r="10.434" transform="matrix(0.706, 0.708, -0.708, 0.706, 330.799, 290.098)" fill="rgba(252,155,17,0.04)"/>
  <circle id="Ellipse-40" data-name="Ellipse" cx="10.434" cy="10.434" r="10.434" transform="matrix(0.706, 0.708, -0.708, 0.706, 357.102, 316.496)" fill="rgba(252,155,17,0.04)"/>
  <circle id="Ellipse-41" data-name="Ellipse" cx="10.434" cy="10.434" r="10.434" transform="matrix(0.706, 0.708, -0.708, 0.706, 93.979, 105.211)" fill="rgba(252,155,17,0.04)"/>
  <circle id="Ellipse-42" data-name="Ellipse" cx="10.434" cy="10.434" r="10.434" transform="matrix(0.706, 0.708, -0.708, 0.706, 120.282, 131.609)" fill="rgba(252,155,17,0.04)"/>
  <circle id="Ellipse-43" data-name="Ellipse" cx="10.434" cy="10.434" r="10.434" transform="matrix(0.706, 0.708, -0.708, 0.706, 146.585, 158.008)" fill="rgba(252,155,17,0.04)"/>
  <circle id="Ellipse-44" data-name="Ellipse" cx="10.434" cy="10.434" r="10.434" transform="matrix(0.706, 0.708, -0.708, 0.706, 172.887, 184.407)" fill="rgba(252,155,17,0.04)"/>
  <circle id="Ellipse-45" data-name="Ellipse" cx="10.434" cy="10.434" r="10.434" transform="matrix(0.706, 0.708, -0.708, 0.706, 199.19, 210.805)" fill="rgba(252,155,17,0.04)"/>
  <circle id="Ellipse-46" data-name="Ellipse" cx="10.434" cy="10.434" r="10.434" transform="matrix(0.706, 0.708, -0.708, 0.706, 225.493, 237.204)" fill="rgba(252,155,17,0.04)"/>
  <circle id="Ellipse-47" data-name="Ellipse" cx="10.434" cy="10.434" r="10.434" transform="matrix(0.706, 0.708, -0.708, 0.706, 251.795, 263.603)" fill="rgba(252,155,17,0.04)"/>
  <circle id="Ellipse-48" data-name="Ellipse" cx="10.434" cy="10.434" r="10.434" transform="matrix(0.706, 0.708, -0.708, 0.706, 278.098, 290.001)" fill="rgba(252,155,17,0.04)"/>
  <circle id="Ellipse-49" data-name="Ellipse" cx="10.434" cy="10.434" r="10.434" transform="matrix(0.706, 0.708, -0.708, 0.706, 304.401, 316.4)" fill="rgba(252,155,17,0.04)"/>
  <circle id="Ellipse-50" data-name="Ellipse" cx="10.434" cy="10.434" r="10.434" transform="matrix(0.706, 0.708, -0.708, 0.706, 330.703, 342.799)" fill="rgba(252,155,17,0.04)"/>
  <circle id="Ellipse-51" data-name="Ellipse" cx="10.434" cy="10.434" r="10.434" transform="matrix(0.706, 0.708, -0.708, 0.706, 67.581, 131.513)" fill="rgba(252,155,17,0.04)"/>
  <circle id="Ellipse-52" data-name="Ellipse" cx="10.434" cy="10.434" r="10.434" transform="matrix(0.706, 0.708, -0.708, 0.706, 93.883, 157.912)" fill="rgba(252,155,17,0.04)"/>
  <circle id="Ellipse-53" data-name="Ellipse" cx="10.434" cy="10.434" r="10.434" transform="matrix(0.706, 0.708, -0.708, 0.706, 120.186, 184.311)" fill="rgba(252,155,17,0.04)"/>
  <circle id="Ellipse-54" data-name="Ellipse" cx="10.434" cy="10.434" r="10.434" transform="matrix(0.706, 0.708, -0.708, 0.706, 146.489, 210.709)" fill="rgba(252,155,17,0.04)"/>
  <circle id="Ellipse-55" data-name="Ellipse" cx="10.434" cy="10.434" r="10.434" transform="matrix(0.706, 0.708, -0.708, 0.706, 172.791, 237.108)" fill="rgba(252,155,17,0.04)"/>
  <circle id="Ellipse-56" data-name="Ellipse" cx="10.434" cy="10.434" r="10.434" transform="matrix(0.706, 0.708, -0.708, 0.706, 199.094, 263.507)" fill="rgba(252,155,17,0.04)"/>
  <circle id="Ellipse-57" data-name="Ellipse" cx="10.434" cy="10.434" r="10.434" transform="matrix(0.706, 0.708, -0.708, 0.706, 225.397, 289.906)" fill="rgba(252,155,17,0.04)"/>
  <circle id="Ellipse-58" data-name="Ellipse" cx="10.434" cy="10.434" r="10.434" transform="matrix(0.706, 0.708, -0.708, 0.706, 251.699, 316.304)" fill="rgba(252,155,17,0.04)"/>
  <circle id="Ellipse-59" data-name="Ellipse" cx="10.434" cy="10.434" r="10.434" transform="matrix(0.706, 0.708, -0.708, 0.706, 278.002, 342.703)" fill="rgba(252,155,17,0.04)"/>
  <circle id="Ellipse-60" data-name="Ellipse" cx="10.434" cy="10.434" r="10.434" transform="matrix(0.706, 0.708, -0.708, 0.706, 304.305, 369.102)" fill="rgba(252,155,17,0.04)"/>
  <circle id="Ellipse-61" data-name="Ellipse" cx="10.434" cy="10.434" r="10.434" transform="matrix(0.706, 0.708, -0.708, 0.706, 41.182, 157.816)" fill="rgba(252,155,17,0.04)"/>
  <circle id="Ellipse-62" data-name="Ellipse" cx="10.434" cy="10.434" r="10.434" transform="matrix(0.706, 0.708, -0.708, 0.706, 67.485, 184.215)" fill="rgba(252,155,17,0.04)"/>
  <circle id="Ellipse-63" data-name="Ellipse" cx="10.434" cy="10.434" r="10.434" transform="matrix(0.706, 0.708, -0.708, 0.706, 93.787, 210.613)" fill="rgba(252,155,17,0.04)"/>
  <circle id="Ellipse-64" data-name="Ellipse" cx="10.434" cy="10.434" r="10.434" transform="matrix(0.706, 0.708, -0.708, 0.706, 120.09, 237.012)" fill="rgba(252,155,17,0.04)"/>
  <circle id="Ellipse-65" data-name="Ellipse" cx="10.434" cy="10.434" r="10.434" transform="matrix(0.706, 0.708, -0.708, 0.706, 146.393, 263.411)" fill="rgba(252,155,17,0.04)"/>
  <circle id="Ellipse-66" data-name="Ellipse" cx="10.434" cy="10.434" r="10.434" transform="matrix(0.706, 0.708, -0.708, 0.706, 172.695, 289.809)" fill="rgba(252,155,17,0.04)"/>
  <circle id="Ellipse-67" data-name="Ellipse" cx="10.434" cy="10.434" r="10.434" transform="matrix(0.706, 0.708, -0.708, 0.706, 198.998, 316.208)" fill="rgba(252,155,17,0.04)"/>
  <circle id="Ellipse-68" data-name="Ellipse" cx="10.434" cy="10.434" r="10.434" transform="matrix(0.706, 0.708, -0.708, 0.706, 225.301, 342.607)" fill="rgba(252,155,17,0.04)"/>
  <circle id="Ellipse-69" data-name="Ellipse" cx="10.434" cy="10.434" r="10.434" transform="matrix(0.706, 0.708, -0.708, 0.706, 251.603, 369.006)" fill="rgba(252,155,17,0.04)"/>
  <circle id="Ellipse-70" data-name="Ellipse" cx="10.434" cy="10.434" r="10.434" transform="matrix(0.706, 0.708, -0.708, 0.706, 277.906, 395.404)" fill="rgba(252,155,17,0.04)"/>
  <circle id="Ellipse-71" data-name="Ellipse" cx="10.434" cy="10.434" r="10.434" transform="matrix(0.706, 0.708, -0.708, 0.706, 14.783, 184.119)" fill="rgba(252,155,17,0.04)"/>
  <circle id="Ellipse-72" data-name="Ellipse" cx="10.434" cy="10.434" r="10.434" transform="matrix(0.706, 0.708, -0.708, 0.706, 41.086, 210.517)" fill="rgba(252,155,17,0.04)"/>
  <circle id="Ellipse-73" data-name="Ellipse" cx="10.434" cy="10.434" r="10.434" transform="matrix(0.706, 0.708, -0.708, 0.706, 67.389, 236.916)" fill="rgba(252,155,17,0.04)"/>
  <circle id="Ellipse-74" data-name="Ellipse" cx="10.434" cy="10.434" r="10.434" transform="matrix(0.706, 0.708, -0.708, 0.706, 93.691, 263.315)" fill="rgba(252,155,17,0.04)"/>
  <circle id="Ellipse-75" data-name="Ellipse" cx="10.434" cy="10.434" r="10.434" transform="matrix(0.706, 0.708, -0.708, 0.706, 119.994, 289.713)" fill="rgba(252,155,17,0.04)"/>
  <circle id="Ellipse-76" data-name="Ellipse" cx="10.434" cy="10.434" r="10.434" transform="matrix(0.706, 0.708, -0.708, 0.706, 146.297, 316.112)" fill="rgba(252,155,17,0.04)"/>
  <circle id="Ellipse-77" data-name="Ellipse" cx="10.434" cy="10.434" r="10.434" transform="matrix(0.706, 0.708, -0.708, 0.706, 172.599, 342.511)" fill="rgba(252,155,17,0.04)"/>
  <circle id="Ellipse-78" data-name="Ellipse" cx="10.434" cy="10.434" r="10.434" transform="matrix(0.706, 0.708, -0.708, 0.706, 198.902, 368.91)" fill="rgba(252,155,17,0.04)"/>
  <circle id="Ellipse-79" data-name="Ellipse" cx="10.434" cy="10.434" r="10.434" transform="matrix(0.706, 0.708, -0.708, 0.706, 225.205, 395.308)" fill="rgba(252,155,17,0.04)"/>
  <circle id="Ellipse-80" data-name="Ellipse" cx="10.434" cy="10.434" r="10.434" transform="matrix(0.706, 0.708, -0.708, 0.706, 251.507, 421.707)" fill="rgba(252,155,17,0.04)"/>
</svg>
